#N canvas -626 -1415 2545 1387 12;
#X declare -lib Gem;
#X obj 83 69 tgl 19 0 empty empty TURN\ ON 0 -10 0 12 #fcfcfc #000000 #000000 0 1;
#X obj 47 107 metro;
#X obj 47 148 bng 19 250 50 0 empty empty empty 0 -10 0 12 #fcfcfc #000000 #000000;
#X msg 133 133 375, f 4;
#X floatatom 134 165 5 0 0 0 - - - 0;
#X obj 98 177 + 1;
#X obj 48 205 % 8;
#X floatatom 47 263 5 0 0 0 - - - 0;
#X obj 48 176 int 0;
#X obj 48 232 + 1;
#X floatatom 9 127 5 0 0 0 - - - 0;
#X obj 9 160 - 1;
#X obj 43 320 bng 19 250 50 0 empty empty empty 0 -10 0 12 #fcfcfc #000000 #000000;
#X obj 43 344 s One;
#X obj 92 320 bng 19 250 50 0 empty empty empty 0 -10 0 12 #fcfcfc #000000 #000000;
#X obj 141 320 bng 19 250 50 0 empty empty empty 0 -10 0 12 #fcfcfc #000000 #000000;
#X obj 200 320 bng 19 250 50 0 empty empty empty 0 -10 0 12 #fcfcfc #000000 #000000;
#X obj 249 320 bng 19 250 50 0 empty empty empty 0 -10 0 12 #fcfcfc #000000 #000000;
#X obj 298 320 bng 19 250 50 0 empty empty empty 0 -10 0 12 #fcfcfc #000000 #000000;
#X obj 342 320 bng 19 250 50 0 empty empty empty 0 -10 0 12 #fcfcfc #000000 #000000;
#X obj 397 320 bng 19 250 50 0 empty empty empty 0 -10 0 12 #fcfcfc #000000 #000000;
#X obj 92 344 s Two;
#X obj 141 344 s Three;
#X obj 200 344 s Four;
#X obj 249 344 s Five;
#X obj 298 344 s Six;
#X obj 342 344 s Seven;
#X obj 397 344 s Eight;
#X obj 586 28 r One;
#X obj 586 52 bng 19 250 50 0 empty empty empty 0 -10 0 12 #fcfcfc #000000 #000000;
#X obj 586 76 spigot;
#X obj 586 100 bng 19 250 50 0 empty empty empty 0 -10 0 12 #fcfcfc #000000 #000000;
#X obj 616 52 tgl 19 0 empty empty empty 0 -10 0 12 #fcfcfc #000000 #000000 0 1;
#X obj 644 52 bng 19 250 50 0 empty empty empty 0 -10 0 12 #fcfcfc #000000 #000000;
#X obj 644 76 spigot;
#X obj 644 100 bng 19 250 50 0 empty empty empty 0 -10 0 12 #fcfcfc #000000 #000000;
#X obj 674 52 tgl 19 0 empty empty empty 0 -10 0 12 #fcfcfc #000000 #000000 0 1;
#X obj 644 28 r Two;
#X obj 701 52 bng 19 250 50 0 empty empty empty 0 -10 0 12 #fcfcfc #000000 #000000;
#X obj 701 76 spigot;
#X obj 701 100 bng 19 250 50 0 empty empty empty 0 -10 0 12 #fcfcfc #000000 #000000;
#X obj 731 52 tgl 19 0 empty empty empty 0 -10 0 12 #fcfcfc #000000 #000000 0 1;
#X obj 763 52 bng 19 250 50 0 empty empty empty 0 -10 0 12 #fcfcfc #000000 #000000;
#X obj 763 76 spigot;
#X obj 763 100 bng 19 250 50 0 empty empty empty 0 -10 0 12 #fcfcfc #000000 #000000;
#X obj 793 52 tgl 19 0 empty empty empty 0 -10 0 12 #fcfcfc #000000 #000000 0 1;
#X obj 701 28 r Three;
#X obj 763 28 r Four;
#X obj 823 52 bng 19 250 50 0 empty empty empty 0 -10 0 12 #fcfcfc #000000 #000000;
#X obj 823 76 spigot;
#X obj 823 100 bng 19 250 50 0 empty empty empty 0 -10 0 12 #fcfcfc #000000 #000000;
#X obj 853 52 tgl 19 0 empty empty empty 0 -10 0 12 #fcfcfc #000000 #000000 0 1;
#X obj 881 52 bng 19 250 50 0 empty empty empty 0 -10 0 12 #fcfcfc #000000 #000000;
#X obj 881 76 spigot;
#X obj 881 100 bng 19 250 50 0 empty empty empty 0 -10 0 12 #fcfcfc #000000 #000000;
#X obj 911 52 tgl 19 0 empty empty empty 0 -10 0 12 #fcfcfc #000000 #000000 0 1;
#X obj 938 52 bng 19 250 50 0 empty empty empty 0 -10 0 12 #fcfcfc #000000 #000000;
#X obj 938 76 spigot;
#X obj 938 100 bng 19 250 50 0 empty empty empty 0 -10 0 12 #fcfcfc #000000 #000000;
#X obj 968 52 tgl 19 0 empty empty empty 0 -10 0 12 #fcfcfc #000000 #000000 0 1;
#X obj 1000 52 bng 19 250 50 0 empty empty empty 0 -10 0 12 #fcfcfc #000000 #000000;
#X obj 1000 76 spigot;
#X obj 1000 100 bng 19 250 50 0 empty empty empty 0 -10 0 12 #fcfcfc #000000 #000000;
#X obj 1030 52 tgl 19 0 empty empty empty 0 -10 0 12 #fcfcfc #000000 #000000 0 1;
#X obj 823 28 r Five;
#X obj 881 28 r Six;
#X obj 938 28 r Seven;
#X obj 1000 28 r Eight;
#X obj 585 319 r One;
#X obj 585 343 bng 19 250 50 0 empty empty empty 0 -10 0 12 #fcfcfc #000000 #000000;
#X obj 585 367 spigot;
#X obj 585 391 bng 19 250 50 0 empty empty empty 0 -10 0 12 #fcfcfc #000000 #000000;
#X obj 615 343 tgl 19 0 empty empty empty 0 -10 0 12 #fcfcfc #000000 #000000 0 1;
#X obj 643 343 bng 19 250 50 0 empty empty empty 0 -10 0 12 #fcfcfc #000000 #000000;
#X obj 643 367 spigot;
#X obj 643 391 bng 19 250 50 0 empty empty empty 0 -10 0 12 #fcfcfc #000000 #000000;
#X obj 673 343 tgl 19 0 empty empty empty 0 -10 0 12 #fcfcfc #000000 #000000 0 1;
#X obj 643 319 r Two;
#X obj 700 343 bng 19 250 50 0 empty empty empty 0 -10 0 12 #fcfcfc #000000 #000000;
#X obj 700 367 spigot;
#X obj 700 391 bng 19 250 50 0 empty empty empty 0 -10 0 12 #fcfcfc #000000 #000000;
#X obj 730 343 tgl 19 0 empty empty empty 0 -10 0 12 #fcfcfc #000000 #000000 0 1;
#X obj 762 343 bng 19 250 50 0 empty empty empty 0 -10 0 12 #fcfcfc #000000 #000000;
#X obj 762 367 spigot;
#X obj 762 391 bng 19 250 50 0 empty empty empty 0 -10 0 12 #fcfcfc #000000 #000000;
#X obj 792 343 tgl 19 0 empty empty empty 0 -10 0 12 #fcfcfc #000000 #000000 0 1;
#X obj 700 319 r Three;
#X obj 762 319 r Four;
#X obj 822 343 bng 19 250 50 0 empty empty empty 0 -10 0 12 #fcfcfc #000000 #000000;
#X obj 822 367 spigot;
#X obj 822 391 bng 19 250 50 0 empty empty empty 0 -10 0 12 #fcfcfc #000000 #000000;
#X obj 852 343 tgl 19 0 empty empty empty 0 -10 0 12 #fcfcfc #000000 #000000 0 1;
#X obj 880 343 bng 19 250 50 0 empty empty empty 0 -10 0 12 #fcfcfc #000000 #000000;
#X obj 880 367 spigot;
#X obj 880 391 bng 19 250 50 0 empty empty empty 0 -10 0 12 #fcfcfc #000000 #000000;
#X obj 910 343 tgl 19 0 empty empty empty 0 -10 0 12 #fcfcfc #000000 #000000 0 1;
#X obj 937 343 bng 19 250 50 0 empty empty empty 0 -10 0 12 #fcfcfc #000000 #000000;
#X obj 937 367 spigot;
#X obj 937 391 bng 19 250 50 0 empty empty empty 0 -10 0 12 #fcfcfc #000000 #000000;
#X obj 967 343 tgl 19 0 empty empty empty 0 -10 0 12 #fcfcfc #000000 #000000 0 1;
#X obj 999 343 bng 19 250 50 0 empty empty empty 0 -10 0 12 #fcfcfc #000000 #000000;
#X obj 999 367 spigot;
#X obj 999 391 bng 19 250 50 0 empty empty empty 0 -10 0 12 #fcfcfc #000000 #000000;
#X obj 1029 343 tgl 19 0 empty empty empty 0 -10 0 12 #fcfcfc #000000 #000000 0 1;
#X obj 822 319 r Five;
#X obj 880 319 r Six;
#X obj 937 319 r Seven;
#X obj 999 319 r Eight;
#X obj 585 178 r One;
#X obj 585 202 bng 19 250 50 0 empty empty empty 0 -10 0 12 #fcfcfc #000000 #000000;
#X obj 585 226 spigot;
#X obj 585 250 bng 19 250 50 0 empty empty empty 0 -10 0 12 #fcfcfc #000000 #000000;
#X obj 615 202 tgl 19 0 empty empty empty 0 -10 0 12 #fcfcfc #000000 #000000 0 1;
#X obj 643 202 bng 19 250 50 0 empty empty empty 0 -10 0 12 #fcfcfc #000000 #000000;
#X obj 643 226 spigot;
#X obj 643 250 bng 19 250 50 0 empty empty empty 0 -10 0 12 #fcfcfc #000000 #000000;
#X obj 673 202 tgl 19 0 empty empty empty 0 -10 0 12 #fcfcfc #000000 #000000 0 1;
#X obj 643 178 r Two;
#X obj 700 202 bng 19 250 50 0 empty empty empty 0 -10 0 12 #fcfcfc #000000 #000000;
#X obj 700 226 spigot;
#X obj 700 250 bng 19 250 50 0 empty empty empty 0 -10 0 12 #fcfcfc #000000 #000000;
#X obj 730 202 tgl 19 0 empty empty empty 0 -10 0 12 #fcfcfc #000000 #000000 0 1;
#X obj 762 202 bng 19 250 50 0 empty empty empty 0 -10 0 12 #fcfcfc #000000 #000000;
#X obj 762 226 spigot;
#X obj 762 250 bng 19 250 50 0 empty empty empty 0 -10 0 12 #fcfcfc #000000 #000000;
#X obj 792 202 tgl 19 0 empty empty empty 0 -10 0 12 #fcfcfc #000000 #000000 0 1;
#X obj 700 178 r Three;
#X obj 762 178 r Four;
#X obj 822 202 bng 19 250 50 0 empty empty empty 0 -10 0 12 #fcfcfc #000000 #000000;
#X obj 822 226 spigot;
#X obj 822 250 bng 19 250 50 0 empty empty empty 0 -10 0 12 #fcfcfc #000000 #000000;
#X obj 852 202 tgl 19 0 empty empty empty 0 -10 0 12 #fcfcfc #000000 #000000 0 1;
#X obj 880 202 bng 19 250 50 0 empty empty empty 0 -10 0 12 #fcfcfc #000000 #000000;
#X obj 880 226 spigot;
#X obj 880 250 bng 19 250 50 0 empty empty empty 0 -10 0 12 #fcfcfc #000000 #000000;
#X obj 910 202 tgl 19 0 empty empty empty 0 -10 0 12 #fcfcfc #000000 #000000 0 1;
#X obj 937 202 bng 19 250 50 0 empty empty empty 0 -10 0 12 #fcfcfc #000000 #000000;
#X obj 937 226 spigot;
#X obj 937 250 bng 19 250 50 0 empty empty empty 0 -10 0 12 #fcfcfc #000000 #000000;
#X obj 967 202 tgl 19 0 empty empty empty 0 -10 0 12 #fcfcfc #000000 #000000 0 1;
#X obj 999 202 bng 19 250 50 0 empty empty empty 0 -10 0 12 #fcfcfc #000000 #000000;
#X obj 999 226 spigot;
#X obj 999 250 bng 19 250 50 0 empty empty empty 0 -10 0 12 #fcfcfc #000000 #000000;
#X obj 1029 202 tgl 19 0 empty empty empty 0 -10 0 12 #fcfcfc #000000 #000000 0 1;
#X obj 822 178 r Five;
#X obj 880 178 r Six;
#X obj 937 178 r Seven;
#X obj 999 178 r Eight;
#X obj 585 468 r One;
#X obj 585 492 bng 19 250 50 0 empty empty empty 0 -10 0 12 #fcfcfc #000000 #000000;
#X obj 585 516 spigot;
#X obj 585 540 bng 19 250 50 0 empty empty empty 0 -10 0 12 #fcfcfc #000000 #000000;
#X obj 615 492 tgl 19 0 empty empty empty 0 -10 0 12 #fcfcfc #000000 #000000 0 1;
#X obj 643 492 bng 19 250 50 0 empty empty empty 0 -10 0 12 #fcfcfc #000000 #000000;
#X obj 643 516 spigot;
#X obj 643 540 bng 19 250 50 0 empty empty empty 0 -10 0 12 #fcfcfc #000000 #000000;
#X obj 673 492 tgl 19 0 empty empty empty 0 -10 0 12 #fcfcfc #000000 #000000 0 1;
#X obj 643 468 r Two;
#X obj 700 492 bng 19 250 50 0 empty empty empty 0 -10 0 12 #fcfcfc #000000 #000000;
#X obj 700 516 spigot;
#X obj 700 540 bng 19 250 50 0 empty empty empty 0 -10 0 12 #fcfcfc #000000 #000000;
#X obj 730 492 tgl 19 0 empty empty empty 0 -10 0 12 #fcfcfc #000000 #000000 0 1;
#X obj 762 492 bng 19 250 50 0 empty empty empty 0 -10 0 12 #fcfcfc #000000 #000000;
#X obj 762 516 spigot;
#X obj 762 540 bng 19 250 50 0 empty empty empty 0 -10 0 12 #fcfcfc #000000 #000000;
#X obj 792 492 tgl 19 0 empty empty empty 0 -10 0 12 #fcfcfc #000000 #000000 0 1;
#X obj 700 468 r Three;
#X obj 762 468 r Four;
#X obj 822 492 bng 19 250 50 0 empty empty empty 0 -10 0 12 #fcfcfc #000000 #000000;
#X obj 822 516 spigot;
#X obj 822 540 bng 19 250 50 0 empty empty empty 0 -10 0 12 #fcfcfc #000000 #000000;
#X obj 852 492 tgl 19 0 empty empty empty 0 -10 0 12 #fcfcfc #000000 #000000 0 1;
#X obj 880 492 bng 19 250 50 0 empty empty empty 0 -10 0 12 #fcfcfc #000000 #000000;
#X obj 880 516 spigot;
#X obj 880 540 bng 19 250 50 0 empty empty empty 0 -10 0 12 #fcfcfc #000000 #000000;
#X obj 910 492 tgl 19 0 empty empty empty 0 -10 0 12 #fcfcfc #000000 #000000 0 1;
#X obj 937 492 bng 19 250 50 0 empty empty empty 0 -10 0 12 #fcfcfc #000000 #000000;
#X obj 937 516 spigot;
#X obj 937 540 bng 19 250 50 0 empty empty empty 0 -10 0 12 #fcfcfc #000000 #000000;
#X obj 967 492 tgl 19 0 empty empty empty 0 -10 0 12 #fcfcfc #000000 #000000 0 1;
#X obj 999 492 bng 19 250 50 0 empty empty empty 0 -10 0 12 #fcfcfc #000000 #000000;
#X obj 999 516 spigot;
#X obj 999 540 bng 19 250 50 0 empty empty empty 0 -10 0 12 #fcfcfc #000000 #000000;
#X obj 1029 492 tgl 19 0 empty empty empty 0 -10 0 12 #fcfcfc #000000 #000000 0 1;
#X obj 822 468 r Five;
#X obj 880 468 r Six;
#X obj 937 468 r Seven;
#X obj 999 468 r Eight;
#X obj 1219 57 bng 19 250 50 0 empty empty empty 0 -10 0 12 #fcfcfc #000000 #000000;
#N canvas 0 22 450 278 (subpatch) 0;
#X array audioData 1.15927e+07 float 2;
#X coords 0 1 1.15927e+07 -1 481 220 1;
#X restore 1387 26 graph;
#X obj 1274 160 soundfiler;
#X floatatom 1273 184 14 0 0 0 - - - 0;
#X msg 1191 136 read -resize \$1 audioData;
#X obj 1156 881 tabread4~ audioData;
#X obj 1154 955 *~;
#X obj 2155 1208 dac~;
#X obj 1156 854 vline~;
#X msg 1156 823 \$1 \, \$2 \$3;
#X obj 1157 710 bng 19 250 50 0 empty empty empty 0 -10 0 12 #fcfcfc #000000 #000000;
#X obj 1156 798 pack f f f, f 19;
#X floatatom 1290 767 7 0 0 0 - - - 0;
#X obj 1390 267 hsl 477 19 0 1.15927e+07 0 0 empty empty Sample\ 1\ Start -2 -10 0 12 #fcfcfc #000000 #000000 0 1;
#X msg 1293 214 range 0 \$1;
#X obj 1156 768 f;
#X msg 1244 823 stop;
#X obj 1306 805 / 1;
#X obj 1510 859 tabread4~ audioData;
#X obj 1509 962 *~;
#X obj 1510 832 vline~;
#X msg 1510 807 \$1 \, \$2 \$3;
#X obj 1512 721 bng 19 250 50 0 empty empty empty 0 -10 0 12 #fcfcfc #000000 #000000;
#X obj 1510 779 pack f f f, f 12;
#X floatatom 1613 767 7 0 0 0 - - - 0;
#X obj 1511 748 f;
#X msg 1597 816 stop;
#X obj 1577 757 / 1;
#X obj 1390 340 hsl 477 19 0 1.15927e+07 0 0 empty empty Sample\ 2\ Start -2 -10 0 12 #fcfcfc #000000 #000000 0 1;
#X obj 1387 407 hsl 477 19 0 1.15927e+07 0 0 empty empty Sample\ 3\ Start -2 -10 0 12 #fcfcfc #000000 #000000 0 1;
#X obj 1385 480 hsl 477 19 0 1.15927e+07 0 0 empty empty Sample\ 4\ Start -2 -10 0 12 #fcfcfc #000000 #000000 0 1;
#X obj 1871 865 tabread4~ audioData;
#X obj 1862 982 *~;
#X obj 1871 836 vline~;
#X msg 1871 813 \$1 \, \$2 \$3;
#X obj 1871 723 bng 19 250 50 0 empty empty empty 0 -10 0 12 #fcfcfc #000000 #000000;
#X obj 1869 789 pack f f f, f 19;
#X floatatom 1961 735 7 0 0 0 - - - 0;
#X obj 1871 759 f;
#X msg 1959 813 stop;
#X obj 1977 766 / 1;
#X obj 2205 872 tabread4~ audioData;
#X obj 2206 953 *~;
#X obj 2206 845 vline~;
#X msg 2207 814 \$1 \, \$2 \$3;
#X obj 2209 719 bng 19 250 50 0 empty empty empty 0 -10 0 12 #fcfcfc #000000 #000000;
#X obj 2207 781 pack f f f, f 19;
#X floatatom 2339 733 7 0 0 0 - - - 0;
#X obj 2209 751 f;
#X msg 2295 814 stop;
#X obj 2353 778 / 1;
#X obj 1246 735 expr abs(($f1 + $f2) - $f1) / 44.1;
#X obj 1216 751 +;
#X floatatom 1234 775 5 0 0 0 - - - 0;
#X obj 132 105 loadbang;
#X obj 1219 32 loadbang;
#X obj 1167 933 nbx 5 17 0 1 0 0 empty empty empty 0 -10 0 12 #fcfcfc #000000 #000000 0 256;
#X obj 1524 939 nbx 5 17 0 1 0 0 empty empty empty 0 -10 0 12 #fcfcfc #000000 #000000 0 256;
#X obj 1872 953 nbx 5 17 0 1 0 0 empty empty empty 0 -10 0 12 #fcfcfc #000000 #000000 0 256;
#X obj 2248 945 nbx 5 17 0 1 0 0 empty empty empty 0 -10 0 12 #fcfcfc #000000 #000000 0 256;
#X obj 2391 779 nbx 5 17 0 2 0 0 empty empty empty 0 -10 0 12 #fcfcfc #000000 #000000 0 256;
#X obj 2020 782 nbx 5 17 0 2 0 0 empty empty empty 0 -10 0 12 #fcfcfc #000000 #000000 0 256;
#X obj 1669 820 nbx 5 17 0 2 0 0 empty empty empty 0 -10 0 12 #fcfcfc #000000 #000000 0 256;
#X obj 1355 810 nbx 5 17 0 2 0 0 empty empty empty 0 -10 0 12 #fcfcfc #000000 #000000 0 256;
#X floatatom 1888 95 5 -100 100 0 - - - 0;
#X obj 1888 167 /;
#X floatatom 1888 189 8 0 0 0 - - - 0;
#X listbox 1888 144 9 0 0 0 - - - 0;
#X msg 1888 116 44100 \$1;
#X floatatom 1990 94 5 -100 100 0 - - - 0;
#X obj 1990 166 /;
#X floatatom 1990 188 8 0 0 0 - - - 0;
#X listbox 1990 143 9 0 0 0 - - - 0;
#X msg 1990 115 44100 \$1;
#X obj 1622 743 expr abs(($f1 + $f2) - $f1) / 44.1;
#X floatatom 2088 94 5 -100 100 0 - - - 0;
#X obj 2088 166 /;
#X floatatom 2088 188 8 0 0 0 - - - 0;
#X listbox 2088 143 9 0 0 0 - - - 0;
#X msg 2088 115 44100 \$1;
#X obj 1960 707 expr abs(($f1 + $f2) - $f1) / 44.1;
#X floatatom 2180 94 5 -100 100 0 - - - 0;
#X obj 2180 166 /;
#X floatatom 2180 188 8 0 0 0 - - - 0;
#X listbox 2180 143 9 0 0 0 - - - 0;
#X msg 2180 115 44100 \$1;
#X obj 2280 708 expr abs(($f1 + $f2) - $f1) / 44.1;
#X obj 1571 733 +, f 5;
#X obj 1912 757 +;
#X obj 2284 735 +;
#X obj 47 291 sel 1 2 3 4 5 6 7 8;
#X obj 62 374 declare -lib Gem;
#X obj 64 497 gemwin;
#X msg 64 469 0 \, destroy;
#X obj 57 545 gemhead;
#X msg 23 791 draw line;
#X obj 57 720 scaleXYZ;
#X floatatom 124 667 5 0 0 0 - - - 0;
#X floatatom 188 758 5 0 0 0 - - - 0;
#X floatatom 233 757 5 0 0 0 - - - 0;
#X floatatom 276 757 5 0 0 0 - - - 0;
#X obj 111 760 rotateXYZ;
#X obj 23 760 loadbang;
#X obj 1890 366 snapshot~;
#X floatatom 1890 392 5 0 0 0 - - - 0;
#X obj 2012 367 snapshot~;
#X floatatom 2012 389 5 0 0 0 - - - 0;
#X obj 2136 368 snapshot~;
#X floatatom 2135 392 5 0 0 0 - - - 0;
#X obj 2258 365 snapshot~;
#X floatatom 2257 389 5 0 0 0 - - - 0;
#X obj 1890 414 * 3600;
#X obj 2011 413 * 3600;
#X obj 2257 411 * 3600;
#X obj 2135 414 * 3600;
#X obj 1889 312 metro 50;
#X obj 1889 279 tgl 19 0 empty empty empty 0 -10 0 12 #fcfcfc #000000 #000000 0 1;
#X obj 53 20 s VisualizerOn;
#X obj 1889 249 r VisualizerOn;
#X msg 1218 85 open thundercat.wav;
#X obj 666 143 s Sample1;
#X obj 664 293 s Sample2;
#X obj 671 432 s Sample3;
#X obj 665 587 s Sample4;
#X obj 1157 683 r Sample1;
#X obj 1511 694 r Sample2;
#X obj 1871 685 r Sample3;
#X obj 2208 685 r Sample4;
#X obj 1386 293 s Sample1Start;
#X obj 1386 366 s Sample2Start;
#X obj 1383 433 s Sample3Start;
#X obj 1382 506 s Sample4Start;
#X obj 1232 683 r Sample1Start;
#X obj 1591 692 r Sample2Start;
#X obj 1946 683 r Sample3Start;
#X obj 2281 685 r Sample4Start;
#X obj 1888 213 s Sample1End;
#X obj 1990 212 s Sample2End;
#X obj 2088 212 s Sample3End;
#X obj 2180 212 s Sample4End;
#X obj 1233 707 r Sample1End;
#X obj 1626 715 r Sample2End;
#X obj 2054 684 r Sample3End;
#X obj 2391 685 r Sample4End;
#X obj 1890 439 s Sample1Freq;
#X obj 2011 437 s Sample2Freq;
#X obj 2135 438 s Sample3Freq;
#X obj 2257 435 s Sample4Freq;
#X obj 63 397 r VisualizerOn;
#X msg 87 445 reset \, dimen 1470 976 \, create \, 1;
#X floatatom 532 79 5 0 0 0 - - - 0;
#X floatatom 532 130 5 -1 1 0 - - - 0;
#X text 476 109 Sample Length;
#X text 461 52 Pitch and Speed;
#X obj 587 122 s S1Pitch;
#X obj 585 143 s S1Length;
#X obj 1888 20 r S1Length;
#X msg 1888 44 1 \$1;
#X obj 1888 68 /;
#X obj 1303 290 bng 19 250 50 0 empty empty empty 0 -10 0 12 #fcfcfc #000000 #000000;
#X obj 1355 786 r S1Pitch;
#X obj 1304 264 r S1Update;
#X obj 1290 828 s S1Update;
#X obj 1064 32 vsl 19 110 0 1 0 0 empty empty Volume\ Control -100 105 0 12 #ffe3c6 #000000 #000000 0 1;
#X obj 741 143 s S1Vol;
#X obj 242 28 bng 100 250 50 0 empty empty POWER\ ON 0 -10 0 12 #fcfcfc #000000 #000000;
#X floatatom 533 232 5 0 0 0 - - - 0;
#X floatatom 533 283 5 -1 1 0 - - - 0;
#X text 477 262 Sample Length;
#X text 462 205 Pitch and Speed;
#X obj 1065 177 vsl 19 110 0 1 0 0 empty empty Volume\ Control -100 105 0 12 #ffe3c6 #000000 #000000 0 1;
#X obj 584 273 s S2Pitch;
#X obj 585 294 s S2Length;
#X obj 736 294 s S2Vol;
#X obj 1668 795 r S2Pitch;
#X obj 1668 842 s S2Update;
#X msg 1990 44 1 \$1;
#X obj 1990 68 /;
#X obj 1990 20 r S2Length;
#X obj 1300 362 bng 19 250 50 0 empty empty empty 0 -10 0 12 #fcfcfc #000000 #000000;
#X obj 1300 338 r S2Update;
#X floatatom 537 371 5 0 0 0 - - - 0;
#X floatatom 537 422 5 -1 1 0 - - - 0;
#X text 481 401 Sample Length;
#X text 466 344 Pitch and Speed;
#X obj 1067 318 vsl 19 110 0 1 0 0 empty empty Volume\ Control -100 105 0 12 #ffe3c6 #000000 #000000 0 1;
#X obj 1298 429 bng 19 250 50 0 empty empty empty 0 -10 0 12 #fcfcfc #000000 #000000;
#X obj 1298 405 r S3Update;
#X obj 588 412 s S3Pitch;
#X obj 586 434 s S3Length;
#X obj 750 431 s S3Vol;
#X obj 1168 904 r S1Vol;
#X obj 1525 908 r S2Vol;
#X obj 2019 752 r S3Pitch;
#X obj 1879 919 r S3Vol;
#X msg 2088 44 1 \$1;
#X obj 2088 68 /;
#X obj 2088 20 r S3Length;
#X floatatom 536 522 5 0 0 0 - - - 0;
#X floatatom 536 573 5 -1 1 0 - - - 0;
#X text 480 552 Sample Length;
#X text 465 495 Pitch and Speed;
#X obj 1066 463 vsl 19 110 0 1 0 0 empty empty Volume\ Control -100 105 0 12 #ffe3c6 #000000 #000000 0 1;
#X obj 1299 511 bng 19 250 50 0 empty empty empty 0 -10 0 12 #fcfcfc #000000 #000000;
#X obj 588 565 s S4Pitch;
#X obj 588 588 s S4Length;
#X obj 735 587 s S4Vol;
#X obj 1299 487 r S4Update;
#X obj 2015 809 s S3Update;
#X obj 2382 802 s S4Update;
#X obj 2392 753 r S4Pitch;
#X obj 2251 910 r S4Vol;
#X msg 2180 44 1 \$1;
#X obj 2180 68 /;
#X obj 2180 20 r S4Length;
#X obj 124 690 /;
#X floatatom 171 705 5 0 0 0 - - - 0;
#X obj 1301 1060 bng 19 250 50 0 empty empty empty 0 -10 0 12 #fcfcfc #000000 #000000;
#X obj 1301 1084 t b b;
#X msg 1301 1108 1 \, 0 100;
#X obj 1301 1132 line~;
#X obj 1301 1156 pow~ 4;
#X obj 1301 1186 *~;
#X obj 1426 1125 line~;
#X obj 1426 1149 pow~ 4;
#X obj 1426 1179 *~;
#X msg 1426 1101 1 \, 0 200;
#X obj 1301 1210 +~;
#X obj 1482 1128 noise~;
#X obj 1482 1152 hip~ 3000;
#X obj 1484 1224 bp~ 5000 2;
#X obj 1301 1237 lop~ 4000;
#X obj 1357 1157 osc~ 200;
#X obj 1601 1072 bng 19 250 50 0 empty empty empty 0 -10 0 12 #fcfcfc #000000 #000000;
#X obj 1601 1149 line~;
#X obj 1601 1173 pow~ 4;
#X obj 1600 1201 *~;
#X obj 1680 1201 hip~ 8000;
#X obj 1680 1225 hip~ 8000;
#X obj 1682 1062 *~ 2;
#X obj 1682 1086 -~ 1;
#X obj 1682 1110 +~;
#X obj 1682 1038 phasor~ 350;
#X obj 1774 1061 *~ 2;
#X obj 1774 1085 -~ 1;
#X obj 1774 1037 phasor~ 800;
#X obj 1682 1173 hip~ 8000;
#X obj 1715 1117 noise~;
#X obj 1715 1141 /~ 4;
#X msg 1601 1125 1 \, 0 100;
#X obj 586 715 r One;
#X obj 586 739 bng 19 250 50 0 empty empty empty 0 -10 0 12 #fcfcfc #000000 #000000;
#X obj 586 763 spigot;
#X obj 586 787 bng 19 250 50 0 empty empty empty 0 -10 0 12 #fcfcfc #000000 #000000;
#X obj 616 739 tgl 19 0 empty empty empty 0 -10 0 12 #fcfcfc #000000 #000000 0 1;
#X obj 644 739 bng 19 250 50 0 empty empty empty 0 -10 0 12 #fcfcfc #000000 #000000;
#X obj 644 763 spigot;
#X obj 644 787 bng 19 250 50 0 empty empty empty 0 -10 0 12 #fcfcfc #000000 #000000;
#X obj 674 739 tgl 19 0 empty empty empty 0 -10 0 12 #fcfcfc #000000 #000000 0 1;
#X obj 644 715 r Two;
#X obj 701 739 bng 19 250 50 0 empty empty empty 0 -10 0 12 #fcfcfc #000000 #000000;
#X obj 701 763 spigot;
#X obj 701 787 bng 19 250 50 0 empty empty empty 0 -10 0 12 #fcfcfc #000000 #000000;
#X obj 731 739 tgl 19 0 empty empty empty 0 -10 0 12 #fcfcfc #000000 #000000 0 1;
#X obj 763 739 bng 19 250 50 0 empty empty empty 0 -10 0 12 #fcfcfc #000000 #000000;
#X obj 763 763 spigot;
#X obj 763 787 bng 19 250 50 0 empty empty empty 0 -10 0 12 #fcfcfc #000000 #000000;
#X obj 793 739 tgl 19 0 empty empty empty 0 -10 0 12 #fcfcfc #000000 #000000 0 1;
#X obj 701 715 r Three;
#X obj 763 715 r Four;
#X obj 823 739 bng 19 250 50 0 empty empty empty 0 -10 0 12 #fcfcfc #000000 #000000;
#X obj 823 763 spigot;
#X obj 823 787 bng 19 250 50 0 empty empty empty 0 -10 0 12 #fcfcfc #000000 #000000;
#X obj 853 739 tgl 19 0 empty empty empty 0 -10 0 12 #fcfcfc #000000 #000000 0 1;
#X obj 881 739 bng 19 250 50 0 empty empty empty 0 -10 0 12 #fcfcfc #000000 #000000;
#X obj 881 763 spigot;
#X obj 881 787 bng 19 250 50 0 empty empty empty 0 -10 0 12 #fcfcfc #000000 #000000;
#X obj 911 739 tgl 19 0 empty empty empty 0 -10 0 12 #fcfcfc #000000 #000000 0 1;
#X obj 938 739 bng 19 250 50 0 empty empty empty 0 -10 0 12 #fcfcfc #000000 #000000;
#X obj 938 763 spigot;
#X obj 938 787 bng 19 250 50 0 empty empty empty 0 -10 0 12 #fcfcfc #000000 #000000;
#X obj 968 739 tgl 19 0 empty empty empty 0 -10 0 12 #fcfcfc #000000 #000000 0 1;
#X obj 1000 739 bng 19 250 50 0 empty empty empty 0 -10 0 12 #fcfcfc #000000 #000000;
#X obj 1000 763 spigot;
#X obj 1000 787 bng 19 250 50 0 empty empty empty 0 -10 0 12 #fcfcfc #000000 #000000;
#X obj 1030 739 tgl 19 0 empty empty empty 0 -10 0 12 #fcfcfc #000000 #000000 0 1;
#X obj 823 715 r Five;
#X obj 881 715 r Six;
#X obj 938 715 r Seven;
#X obj 1000 715 r Eight;
#X obj 586 829 s Kick;
#X obj 584 961 r One;
#X obj 584 985 bng 19 250 50 0 empty empty empty 0 -10 0 12 #fcfcfc #000000 #000000;
#X obj 584 1009 spigot;
#X obj 584 1033 bng 19 250 50 0 empty empty empty 0 -10 0 12 #fcfcfc #000000 #000000;
#X obj 614 985 tgl 19 0 empty empty empty 0 -10 0 12 #fcfcfc #000000 #000000 0 1;
#X obj 642 985 bng 19 250 50 0 empty empty empty 0 -10 0 12 #fcfcfc #000000 #000000;
#X obj 642 1009 spigot;
#X obj 642 1033 bng 19 250 50 0 empty empty empty 0 -10 0 12 #fcfcfc #000000 #000000;
#X obj 672 985 tgl 19 0 empty empty empty 0 -10 0 12 #fcfcfc #000000 #000000 0 1;
#X obj 642 961 r Two;
#X obj 699 985 bng 19 250 50 0 empty empty empty 0 -10 0 12 #fcfcfc #000000 #000000;
#X obj 699 1009 spigot;
#X obj 699 1033 bng 19 250 50 0 empty empty empty 0 -10 0 12 #fcfcfc #000000 #000000;
#X obj 729 985 tgl 19 0 empty empty empty 0 -10 0 12 #fcfcfc #000000 #000000 0 1;
#X obj 761 985 bng 19 250 50 0 empty empty empty 0 -10 0 12 #fcfcfc #000000 #000000;
#X obj 761 1009 spigot;
#X obj 761 1033 bng 19 250 50 0 empty empty empty 0 -10 0 12 #fcfcfc #000000 #000000;
#X obj 791 985 tgl 19 0 empty empty empty 0 -10 0 12 #fcfcfc #000000 #000000 0 1;
#X obj 699 961 r Three;
#X obj 761 961 r Four;
#X obj 821 985 bng 19 250 50 0 empty empty empty 0 -10 0 12 #fcfcfc #000000 #000000;
#X obj 821 1009 spigot;
#X obj 821 1033 bng 19 250 50 0 empty empty empty 0 -10 0 12 #fcfcfc #000000 #000000;
#X obj 851 985 tgl 19 0 empty empty empty 0 -10 0 12 #fcfcfc #000000 #000000 0 1;
#X obj 879 985 bng 19 250 50 0 empty empty empty 0 -10 0 12 #fcfcfc #000000 #000000;
#X obj 879 1009 spigot;
#X obj 879 1033 bng 19 250 50 0 empty empty empty 0 -10 0 12 #fcfcfc #000000 #000000;
#X obj 909 985 tgl 19 0 empty empty empty 0 -10 0 12 #fcfcfc #000000 #000000 0 1;
#X obj 936 985 bng 19 250 50 0 empty empty empty 0 -10 0 12 #fcfcfc #000000 #000000;
#X obj 936 1009 spigot;
#X obj 936 1033 bng 19 250 50 0 empty empty empty 0 -10 0 12 #fcfcfc #000000 #000000;
#X obj 966 985 tgl 19 0 empty empty empty 0 -10 0 12 #fcfcfc #000000 #000000 0 1;
#X obj 998 985 bng 19 250 50 0 empty empty empty 0 -10 0 12 #fcfcfc #000000 #000000;
#X obj 998 1009 spigot;
#X obj 998 1033 bng 19 250 50 0 empty empty empty 0 -10 0 12 #fcfcfc #000000 #000000;
#X obj 1028 985 tgl 19 0 empty empty empty 0 -10 0 12 #fcfcfc #000000 #000000 0 1;
#X obj 821 961 r Five;
#X obj 879 961 r Six;
#X obj 936 961 r Seven;
#X obj 998 961 r Eight;
#X obj 583 1202 r One;
#X obj 583 1226 bng 19 250 50 0 empty empty empty 0 -10 0 12 #fcfcfc #000000 #000000;
#X obj 583 1250 spigot;
#X obj 583 1274 bng 19 250 50 0 empty empty empty 0 -10 0 12 #fcfcfc #000000 #000000;
#X obj 613 1226 tgl 19 0 empty empty empty 0 -10 0 12 #fcfcfc #000000 #000000 0 1;
#X obj 641 1226 bng 19 250 50 0 empty empty empty 0 -10 0 12 #fcfcfc #000000 #000000;
#X obj 641 1250 spigot;
#X obj 641 1274 bng 19 250 50 0 empty empty empty 0 -10 0 12 #fcfcfc #000000 #000000;
#X obj 671 1226 tgl 19 0 empty empty empty 0 -10 0 12 #fcfcfc #000000 #000000 0 1;
#X obj 641 1202 r Two;
#X obj 698 1226 bng 19 250 50 0 empty empty empty 0 -10 0 12 #fcfcfc #000000 #000000;
#X obj 698 1250 spigot;
#X obj 698 1274 bng 19 250 50 0 empty empty empty 0 -10 0 12 #fcfcfc #000000 #000000;
#X obj 728 1226 tgl 19 0 empty empty empty 0 -10 0 12 #fcfcfc #000000 #000000 0 1;
#X obj 760 1226 bng 19 250 50 0 empty empty empty 0 -10 0 12 #fcfcfc #000000 #000000;
#X obj 760 1250 spigot;
#X obj 760 1274 bng 19 250 50 0 empty empty empty 0 -10 0 12 #fcfcfc #000000 #000000;
#X obj 790 1226 tgl 19 0 empty empty empty 0 -10 0 12 #fcfcfc #000000 #000000 0 1;
#X obj 698 1202 r Three;
#X obj 760 1202 r Four;
#X obj 820 1226 bng 19 250 50 0 empty empty empty 0 -10 0 12 #fcfcfc #000000 #000000;
#X obj 820 1250 spigot;
#X obj 820 1274 bng 19 250 50 0 empty empty empty 0 -10 0 12 #fcfcfc #000000 #000000;
#X obj 850 1226 tgl 19 0 empty empty empty 0 -10 0 12 #fcfcfc #000000 #000000 0 1;
#X obj 878 1226 bng 19 250 50 0 empty empty empty 0 -10 0 12 #fcfcfc #000000 #000000;
#X obj 878 1250 spigot;
#X obj 878 1274 bng 19 250 50 0 empty empty empty 0 -10 0 12 #fcfcfc #000000 #000000;
#X obj 908 1226 tgl 19 0 empty empty empty 0 -10 0 12 #fcfcfc #000000 #000000 0 1;
#X obj 935 1226 bng 19 250 50 0 empty empty empty 0 -10 0 12 #fcfcfc #000000 #000000;
#X obj 935 1250 spigot;
#X obj 935 1274 bng 19 250 50 0 empty empty empty 0 -10 0 12 #fcfcfc #000000 #000000;
#X obj 965 1226 tgl 19 0 empty empty empty 0 -10 0 12 #fcfcfc #000000 #000000 0 1;
#X obj 997 1226 bng 19 250 50 0 empty empty empty 0 -10 0 12 #fcfcfc #000000 #000000;
#X obj 997 1250 spigot;
#X obj 997 1274 bng 19 250 50 0 empty empty empty 0 -10 0 12 #fcfcfc #000000 #000000;
#X obj 1027 1226 tgl 19 0 empty empty empty 0 -10 0 12 #fcfcfc #000000 #000000 0 1;
#X obj 820 1202 r Five;
#X obj 878 1202 r Six;
#X obj 935 1202 r Seven;
#X obj 997 1202 r Eight;
#X obj 679 1294 s Snare;
#X obj 584 1075 s Hi_Hat;
#X obj 1155 1051 bng 19 250 50 0 empty empty empty 0 -10 0 12 #fcfcfc #000000 #000000;
#X obj 1155 1099 line~;
#X obj 1155 1123 sqrt~;
#X obj 1155 1147 *~ 20;
#X obj 1155 1171 -~ 0.25;
#X obj 1155 1195 cos~;
#X msg 1155 1075 0 \, 1 200;
#X obj 1155 1219 lop~ 1000;
#X obj 1155 1317 *~;
#X obj 1168 1295 nbx 5 17 0 1 0 0 empty empty empty 0 -10 0 12 #fcfcfc #000000 #000000 0 256;
#X obj 1166 1268 r KickVol;
#X obj 1154 1020 r Kick;
#X obj 1069 711 vsl 19 110 0 1 0 0 empty empty Volume\ Control -100 105 0 12 #ffe3c6 #000000 #000000 0 1;
#X obj 638 830 s KickVol;
#X obj 1301 1028 r Snare;
#X obj 1365 1306 *~;
#X obj 1378 1284 nbx 5 17 0 1 0 0 empty empty empty 0 -10 0 12 #fcfcfc #000000 #000000 0 256;
#X obj 1377 1247 r SnareVol;
#X obj 1069 1197 vsl 19 110 0 1 0 0 empty empty Volume\ Control -100 105 0 12 #ffe3c6 #000000 #000000 0 1;
#X obj 679 1320 s SnareVol;
#X obj 1599 1294 *~;
#X obj 1612 1272 nbx 5 17 0 1 0 0 empty empty empty 0 -10 0 12 #fcfcfc #000000 #000000 0 256;
#X obj 1645 1250 r HiHatVol;
#X obj 1068 959 vsl 19 110 0 1 0 0 empty empty Volume\ Control -100 105 0 12 #ffe3c6 #000000 #000000 0 1;
#X obj 647 1075 s HiHatVol;
#X obj 1601 1043 r Hi_Hat;
#X obj 2275 20 loadbang;
#X msg 2275 44 1;
#X obj 2275 68 s DefaultP;
#X obj 449 78 r DefaultP;
#X obj 449 230 r DefaultP;
#X obj 446 371 r DefaultP;
#X obj 451 523 r DefaultP;
#X obj 2356 20 loadbang;
#X msg 2356 44 1;
#X obj 2356 68 s DefaultVol;
#X obj 969 5 r DefaultVol;
#X obj 970 151 r DefaultVol;
#X obj 963 293 r DefaultVol;
#X obj 963 439 r DefaultVol;
#X obj 998 616 r DefaultVol;
#X obj 1001 864 r DefaultVol;
#X obj 999 1100 r DefaultVol;
#X obj 2448 20 loadbang;
#X msg 2448 44 0.25;
#X obj 2448 68 s DefaultLen;
#X obj 433 129 r DefaultLen;
#X obj 432 281 r DefaultLen;
#X obj 434 422 r DefaultLen;
#X obj 435 573 r DefaultLen;
#X floatatom 96 261 5 0 0 0 - - - 0;
#X obj 96 234 + 1;
#X obj 96 207 % 16;
#X obj 146 194 sel 1;
#X obj 146 218 spigot;
#X obj 146 242 bng 19 250 50 0 empty empty empty 0 -10 0 12 #fcfcfc #000000 #000000;
#X obj 199 193 tgl 19 0 empty empty empty 0 -10 0 12 #fcfcfc #000000 #000000 0 1;
#X obj 146 266 s NewPattern;
#X obj 256 152 bng 50 250 50 0 empty empty Randomize\ beat\ every\ 2\ measures -60 -10 0 12 #fcfcfc #000000 #000000;
#X obj 586 615 r NewPattern;
#X obj 586 643 bng 19 250 50 0 empty empty empty 0 -10 0 12 #fcfcfc #000000 #000000;
#X obj 586 668 random 100;
#X obj 586 692 < 100;
#X obj 646 643 bng 19 250 50 0 empty empty empty 0 -10 0 12 #fcfcfc #000000 #000000;
#X obj 646 668 random 100;
#X obj 703 643 bng 19 250 50 0 empty empty empty 0 -10 0 12 #fcfcfc #000000 #000000;
#X obj 703 668 random 100;
#X obj 763 643 bng 19 250 50 0 empty empty empty 0 -10 0 12 #fcfcfc #000000 #000000;
#X obj 763 668 random 100;
#X obj 826 643 bng 19 250 50 0 empty empty empty 0 -10 0 12 #fcfcfc #000000 #000000;
#X obj 826 668 random 100;
#X obj 826 692 < 100;
#X obj 886 643 bng 19 250 50 0 empty empty empty 0 -10 0 12 #fcfcfc #000000 #000000;
#X obj 886 668 random 100;
#X obj 943 643 bng 19 250 50 0 empty empty empty 0 -10 0 12 #fcfcfc #000000 #000000;
#X obj 943 668 random 100;
#X obj 1003 643 bng 19 250 50 0 empty empty empty 0 -10 0 12 #fcfcfc #000000 #000000;
#X obj 1003 668 random 100;
#X obj 646 692 < 80;
#X obj 703 692 < 5;
#X obj 763 692 < 45;
#X obj 886 692 < 70;
#X obj 943 692 < 5;
#X obj 1003 692 < 60;
#X obj 587 858 r NewPattern;
#X obj 587 886 bng 19 250 50 0 empty empty empty 0 -10 0 12 #fcfcfc #000000 #000000;
#X obj 587 911 random 100;
#X obj 587 935 < 100;
#X obj 647 886 bng 19 250 50 0 empty empty empty 0 -10 0 12 #fcfcfc #000000 #000000;
#X obj 647 911 random 100;
#X obj 704 886 bng 19 250 50 0 empty empty empty 0 -10 0 12 #fcfcfc #000000 #000000;
#X obj 704 911 random 100;
#X obj 764 886 bng 19 250 50 0 empty empty empty 0 -10 0 12 #fcfcfc #000000 #000000;
#X obj 764 911 random 100;
#X obj 827 886 bng 19 250 50 0 empty empty empty 0 -10 0 12 #fcfcfc #000000 #000000;
#X obj 827 911 random 100;
#X obj 827 935 < 100;
#X obj 887 886 bng 19 250 50 0 empty empty empty 0 -10 0 12 #fcfcfc #000000 #000000;
#X obj 887 911 random 100;
#X obj 944 886 bng 19 250 50 0 empty empty empty 0 -10 0 12 #fcfcfc #000000 #000000;
#X obj 944 911 random 100;
#X obj 1004 886 bng 19 250 50 0 empty empty empty 0 -10 0 12 #fcfcfc #000000 #000000;
#X obj 1004 911 random 100;
#X obj 647 935 < 80;
#X obj 764 935 < 45;
#X obj 887 935 < 70;
#X obj 1004 935 < 60;
#X obj 704 935 < 85;
#X obj 944 935 < 75;
#X obj 583 1098 r NewPattern;
#X obj 583 1126 bng 19 250 50 0 empty empty empty 0 -10 0 12 #fcfcfc #000000 #000000;
#X obj 583 1151 random 100;
#X obj 643 1126 bng 19 250 50 0 empty empty empty 0 -10 0 12 #fcfcfc #000000 #000000;
#X obj 643 1151 random 100;
#X obj 700 1126 bng 19 250 50 0 empty empty empty 0 -10 0 12 #fcfcfc #000000 #000000;
#X obj 700 1151 random 100;
#X obj 760 1126 bng 19 250 50 0 empty empty empty 0 -10 0 12 #fcfcfc #000000 #000000;
#X obj 760 1151 random 100;
#X obj 823 1126 bng 19 250 50 0 empty empty empty 0 -10 0 12 #fcfcfc #000000 #000000;
#X obj 823 1151 random 100;
#X obj 883 1126 bng 19 250 50 0 empty empty empty 0 -10 0 12 #fcfcfc #000000 #000000;
#X obj 883 1151 random 100;
#X obj 940 1126 bng 19 250 50 0 empty empty empty 0 -10 0 12 #fcfcfc #000000 #000000;
#X obj 940 1151 random 100;
#X obj 1000 1126 bng 19 250 50 0 empty empty empty 0 -10 0 12 #fcfcfc #000000 #000000;
#X obj 1000 1151 random 100;
#X obj 583 1175 < 1;
#X obj 643 1175 < 1;
#X obj 700 1175 < 100;
#X obj 760 1175 < 65;
#X obj 823 1175 < 1;
#X obj 883 1175 < 1;
#X obj 940 1175 < 100;
#X obj 1000 1175 < 50;
#X obj 255 225 bng 50 250 50 0 empty empty RANDOMIZE\ FOR\ FUN 0 -10 0 12 #fcfcfc #000000 #000000;
#X obj 63 421 sel 0 1;
#X obj 1194 283 openpanel;
#X msg 1194 308 open \$1;
#X obj 1194 224 bng 50 250 50 0 empty empty OPEN\ YOUR\ OWN\ FILES!!! -40 -10 0 8 #fcfcfc #000000 #000000;
#X obj 1103 32 vsl 30 542 0 1 0 0 empty empty MASTER\ VOLUME 38 540 0 12 #c6ffc7 #000000 #000000 0 1;
#X obj 1103 582 s MasterVol;
#X obj 2154 1152 *~;
#X obj 2213 1170 r MasterVol;
#X obj 505 28 cnv 20 65 20 empty empty Sample\ 1 5 12 0 12 #ffc7c6 #404040 0;
#X obj 506 177 cnv 20 65 20 empty empty Sample\ 2 5 12 0 12 #ffc7c6 #404040 0;
#X obj 506 319 cnv 20 65 20 empty empty Sample\ 3 5 12 0 12 #ffc7c6 #404040 0;
#X obj 510 466 cnv 20 65 20 empty empty Sample\ 4 5 12 0 12 #ffc7c6 #404040 0;
#X obj 511 717 cnv 20 65 20 empty empty Kick 5 12 0 12 #ffc7c6 #404040 0;
#X obj 506 963 cnv 20 65 20 empty empty Hi\ Hat 5 12 0 12 #ffc7c6 #404040 0;
#X obj 503 1200 cnv 20 65 20 empty empty Snare 5 12 0 12 #ffc7c6 #404040 0;
#X text 527 1223 Pitch;
#X floatatom 531 1245 5 0 0 0 - - - 0;
#X obj 2275 91 loadbang;
#X msg 2275 115 200;
#X obj 2275 139 s DefaultSnareP;
#X obj 408 1245 r DefaultSnareP;
#X obj 1372 1066 r SnarePitch;
#X obj 582 1293 s SnarePitch;
#X floatatom 529 1293 5 0 0 0 - - - 0;
#X obj 2391 90 loadbang;
#X obj 2391 138 s DefaultSnareFreq;
#X obj 385 1292 r DefaultSnareFreq;
#X msg 2391 114 5000;
#X obj 580 1315 s SnareFreq;
#X text 500 1273 Frequency;
#X floatatom 528 1335 5 0 0 0 - - - 0;
#X text 551 1316 Q;
#X obj 402 1335 r DefaultSnareQ;
#X obj 2275 163 loadbang;
#X obj 2275 211 s DefaultSnareQ;
#X obj 580 1339 s SnareQ;
#X obj 1497 1175 r SnareFreq;
#X obj 1519 1198 r SnareQ;
#X msg 2275 187 2;
#X obj 1876 1056 receive~ S1Sound;
#X obj 2001 1056 receive~ S2Sound;
#X obj 2120 1055 receive~ S3Sound;
#X obj 2238 1054 receive~ S4Sound;
#X obj 2362 1056 receive~ KickSound;
#X obj 2345 1099 receive~ SnareSound;
#X obj 2347 1137 receive~ HiHatSound;
#X obj 1890 343 receive~ S1Sound;
#X obj 2012 342 receive~ S2Sound;
#X obj 2136 341 receive~ S3Sound;
#X obj 2258 340 receive~ S4Sound;
#X obj 1154 979 send~ S1Sound;
#X obj 1509 990 send~ S2Sound;
#X obj 1862 1011 send~ S3Sound;
#X obj 2206 986 send~ S4Sound;
#X obj 1155 1341 send~ KickSound;
#X obj 1365 1330 send~ SnareSound;
#X obj 1599 1318 send~ HiHatSound;
#X obj 362 831 r Sample4Freq;
#X obj 327 735 r Sample1Freq;
#X obj 345 761 r Sample2Freq;
#X obj 362 807 r Sample3Freq;
#X obj 327 802 +;
#X floatatom 327 947 5 0 0 0 - - - 0;
#X obj 327 826 +;
#X obj 327 850 +;
#X obj 327 970 s FreqCombo;
#X obj 257 615 r FreqCombo;
#X obj 250 687 + 1;
#X obj 341 656 random 10;
#X obj 287 689 + 1;
#X obj 323 689 + 1;
#X obj 278 580 + 1;
#X obj 224 721 /;
#X obj 326 446 metro 50;
#X obj 255 722 /;
#X obj 289 723 /;
#X obj 174 475 r VisualizerOn;
#X obj 327 377 r VisualizerOn;
#X msg 173 523 open bork.mov;
#X obj 111 856 t a b;
#X obj 124 882 f;
#X obj 124 906 * 1;
#X obj 124 930 mod 4;
#X obj 70 931 spigot;
#X obj 217 622 /;
#X obj 111 784 translateXYZ 0.5 0 0;
#X obj 327 414 tgl 19 0 empty empty empty 0 -10 0 12 #fcfcfc #000000 #000000 0 1;
#X floatatom 156 906 5 0 0 0 - - - 0;
#X obj 111 808 alpha;
#X floatatom 185 865 5 0 0 0 - - - 0;
#X floatatom 231 866 5 0 0 0 - - - 0;
#X obj 57 600 pix_film;
#X obj 57 624 pix_metaimage;
#X obj 57 648 pix_texture;
#X obj 174 499 bng 19 250 50 0 empty empty empty 0 -10 0 12 #fcfcfc #000000 #000000;
#X obj 57 566 colorRGB 1 0.1 0.23 1;
#X obj 279 556 random 50;
#X obj 267 655 random 50;
#X obj 418 658 random 50;
#X obj 171 656 loadbang;
#X msg 171 680 270;
#X obj 2380 365 snapshot~;
#X floatatom 2380 389 5 0 0 0 - - - 0;
#X obj 2380 411 * 3600;
#X obj 2380 340 receive~ KickSound;
#X obj 2380 435 s KickFreq;
#X obj 2380 495 snapshot~;
#X floatatom 2380 519 5 0 0 0 - - - 0;
#X obj 2380 470 receive~ SnareSound;
#X obj 2380 565 s SnareFreq;
#X obj 2230 495 snapshot~;
#X floatatom 2230 519 5 0 0 0 - - - 0;
#X obj 2230 470 receive~ HiHatSound;
#X obj 2230 565 s HiHatFreq;
#X obj 2230 541 * 1800;
#X obj 2380 541 * 1800;
#X obj 327 876 +;
#X obj 327 900 +;
#X obj 362 857 r KickFreq;
#X obj 362 881 r SnareFreq;
#X obj 327 922 +;
#X obj 362 903 r HiHatFreq;
#X obj 111 832 sphere;
#X obj 183 807 loadbang;
#X msg 183 831 50;
#X connect 0 0 1 0;
#X connect 0 0 10 0;
#X connect 0 0 305 0;
#X connect 1 0 2 0;
#X connect 2 0 8 0;
#X connect 3 0 4 0;
#X connect 4 0 1 1;
#X connect 5 0 8 1;
#X connect 6 0 9 0;
#X connect 7 0 278 0;
#X connect 8 0 6 0;
#X connect 8 0 5 0;
#X connect 8 0 613 0;
#X connect 9 0 7 0;
#X connect 10 0 11 0;
#X connect 11 0 8 0;
#X connect 12 0 13 0;
#X connect 14 0 21 0;
#X connect 15 0 22 0;
#X connect 16 0 23 0;
#X connect 17 0 24 0;
#X connect 18 0 25 0;
#X connect 19 0 26 0;
#X connect 20 0 27 0;
#X connect 28 0 29 0;
#X connect 29 0 30 0;
#X connect 30 0 31 0;
#X connect 31 0 308 0;
#X connect 32 0 30 1;
#X connect 33 0 34 0;
#X connect 34 0 35 0;
#X connect 35 0 308 0;
#X connect 36 0 34 1;
#X connect 37 0 33 0;
#X connect 38 0 39 0;
#X connect 39 0 40 0;
#X connect 40 0 308 0;
#X connect 41 0 39 1;
#X connect 42 0 43 0;
#X connect 43 0 44 0;
#X connect 44 0 308 0;
#X connect 45 0 43 1;
#X connect 46 0 38 0;
#X connect 47 0 42 0;
#X connect 48 0 49 0;
#X connect 49 0 50 0;
#X connect 50 0 308 0;
#X connect 51 0 49 1;
#X connect 52 0 53 0;
#X connect 53 0 54 0;
#X connect 54 0 308 0;
#X connect 55 0 53 1;
#X connect 56 0 57 0;
#X connect 57 0 58 0;
#X connect 58 0 308 0;
#X connect 59 0 57 1;
#X connect 60 0 61 0;
#X connect 61 0 62 0;
#X connect 62 0 308 0;
#X connect 63 0 61 1;
#X connect 64 0 48 0;
#X connect 65 0 52 0;
#X connect 66 0 56 0;
#X connect 67 0 60 0;
#X connect 68 0 69 0;
#X connect 69 0 70 0;
#X connect 70 0 71 0;
#X connect 71 0 310 0;
#X connect 72 0 70 1;
#X connect 73 0 74 0;
#X connect 74 0 75 0;
#X connect 75 0 310 0;
#X connect 76 0 74 1;
#X connect 77 0 73 0;
#X connect 78 0 79 0;
#X connect 79 0 80 0;
#X connect 80 0 310 0;
#X connect 81 0 79 1;
#X connect 82 0 83 0;
#X connect 83 0 84 0;
#X connect 84 0 310 0;
#X connect 85 0 83 1;
#X connect 86 0 78 0;
#X connect 87 0 82 0;
#X connect 88 0 89 0;
#X connect 89 0 90 0;
#X connect 90 0 310 0;
#X connect 91 0 89 1;
#X connect 92 0 93 0;
#X connect 93 0 94 0;
#X connect 94 0 310 0;
#X connect 95 0 93 1;
#X connect 96 0 97 0;
#X connect 97 0 98 0;
#X connect 98 0 310 0;
#X connect 99 0 97 1;
#X connect 100 0 101 0;
#X connect 101 0 102 0;
#X connect 102 0 310 0;
#X connect 103 0 101 1;
#X connect 104 0 88 0;
#X connect 105 0 92 0;
#X connect 106 0 96 0;
#X connect 107 0 100 0;
#X connect 108 0 109 0;
#X connect 109 0 110 0;
#X connect 110 0 111 0;
#X connect 111 0 309 0;
#X connect 112 0 110 1;
#X connect 113 0 114 0;
#X connect 114 0 115 0;
#X connect 115 0 309 0;
#X connect 116 0 114 1;
#X connect 117 0 113 0;
#X connect 118 0 119 0;
#X connect 119 0 120 0;
#X connect 120 0 309 0;
#X connect 121 0 119 1;
#X connect 122 0 123 0;
#X connect 123 0 124 0;
#X connect 124 0 309 0;
#X connect 125 0 123 1;
#X connect 126 0 118 0;
#X connect 127 0 122 0;
#X connect 128 0 129 0;
#X connect 129 0 130 0;
#X connect 130 0 309 0;
#X connect 131 0 129 1;
#X connect 132 0 133 0;
#X connect 133 0 134 0;
#X connect 134 0 309 0;
#X connect 135 0 133 1;
#X connect 136 0 137 0;
#X connect 137 0 138 0;
#X connect 138 0 309 0;
#X connect 139 0 137 1;
#X connect 140 0 141 0;
#X connect 141 0 142 0;
#X connect 142 0 309 0;
#X connect 143 0 141 1;
#X connect 144 0 128 0;
#X connect 145 0 132 0;
#X connect 146 0 136 0;
#X connect 147 0 140 0;
#X connect 148 0 149 0;
#X connect 149 0 150 0;
#X connect 150 0 151 0;
#X connect 151 0 311 0;
#X connect 152 0 150 1;
#X connect 153 0 154 0;
#X connect 154 0 155 0;
#X connect 155 0 311 0;
#X connect 156 0 154 1;
#X connect 157 0 153 0;
#X connect 158 0 159 0;
#X connect 159 0 160 0;
#X connect 160 0 311 0;
#X connect 161 0 159 1;
#X connect 162 0 163 0;
#X connect 163 0 164 0;
#X connect 164 0 311 0;
#X connect 165 0 163 1;
#X connect 166 0 158 0;
#X connect 167 0 162 0;
#X connect 168 0 169 0;
#X connect 169 0 170 0;
#X connect 170 0 311 0;
#X connect 171 0 169 1;
#X connect 172 0 173 0;
#X connect 173 0 174 0;
#X connect 174 0 311 0;
#X connect 175 0 173 1;
#X connect 176 0 177 0;
#X connect 177 0 178 0;
#X connect 178 0 311 0;
#X connect 179 0 177 1;
#X connect 180 0 181 0;
#X connect 181 0 182 0;
#X connect 182 0 311 0;
#X connect 183 0 181 1;
#X connect 184 0 168 0;
#X connect 185 0 172 0;
#X connect 186 0 176 0;
#X connect 187 0 180 0;
#X connect 188 0 307 0;
#X connect 190 0 191 0;
#X connect 191 0 202 0;
#X connect 192 0 190 0;
#X connect 193 0 194 0;
#X connect 194 0 746 0;
#X connect 196 0 193 0;
#X connect 197 0 196 0;
#X connect 198 0 203 0;
#X connect 199 0 197 0;
#X connect 199 0 350 0;
#X connect 200 0 205 0;
#X connect 201 0 316 0;
#X connect 202 0 201 0;
#X connect 202 0 216 0;
#X connect 202 0 217 0;
#X connect 202 0 218 0;
#X connect 203 0 199 0;
#X connect 204 0 196 0;
#X connect 205 0 199 2;
#X connect 206 0 207 0;
#X connect 207 0 747 0;
#X connect 208 0 206 0;
#X connect 209 0 208 0;
#X connect 210 0 213 0;
#X connect 211 0 209 0;
#X connect 211 0 363 0;
#X connect 212 0 215 0;
#X connect 213 0 211 0;
#X connect 214 0 208 0;
#X connect 215 0 211 2;
#X connect 216 0 317 0;
#X connect 217 0 318 0;
#X connect 218 0 319 0;
#X connect 219 0 220 0;
#X connect 220 0 748 0;
#X connect 221 0 219 0;
#X connect 222 0 221 0;
#X connect 223 0 226 0;
#X connect 224 0 222 0;
#X connect 224 0 396 0;
#X connect 225 0 228 0;
#X connect 226 0 224 0;
#X connect 227 0 221 0;
#X connect 228 0 224 2;
#X connect 229 0 230 0;
#X connect 230 0 749 0;
#X connect 231 0 229 0;
#X connect 232 0 231 0;
#X connect 233 0 236 0;
#X connect 234 0 232 0;
#X connect 234 0 397 0;
#X connect 235 0 238 0;
#X connect 236 0 234 0;
#X connect 237 0 231 0;
#X connect 238 0 234 2;
#X connect 239 0 200 0;
#X connect 240 0 199 1;
#X connect 240 0 241 0;
#X connect 242 0 3 0;
#X connect 243 0 188 0;
#X connect 244 0 194 1;
#X connect 245 0 207 1;
#X connect 246 0 220 1;
#X connect 247 0 230 1;
#X connect 248 0 238 1;
#X connect 249 0 228 1;
#X connect 250 0 215 1;
#X connect 251 0 205 1;
#X connect 252 0 256 0;
#X connect 253 0 254 0;
#X connect 254 0 324 0;
#X connect 255 0 253 0;
#X connect 256 0 255 0;
#X connect 257 0 261 0;
#X connect 258 0 259 0;
#X connect 259 0 325 0;
#X connect 260 0 258 0;
#X connect 261 0 260 0;
#X connect 262 0 212 0;
#X connect 263 0 267 0;
#X connect 264 0 265 0;
#X connect 265 0 326 0;
#X connect 266 0 264 0;
#X connect 267 0 266 0;
#X connect 268 0 225 0;
#X connect 269 0 273 0;
#X connect 270 0 271 0;
#X connect 271 0 327 0;
#X connect 272 0 270 0;
#X connect 273 0 272 0;
#X connect 274 0 235 0;
#X connect 275 0 211 1;
#X connect 276 0 224 1;
#X connect 277 0 234 1;
#X connect 278 0 12 0;
#X connect 278 1 14 0;
#X connect 278 2 15 0;
#X connect 278 3 16 0;
#X connect 278 4 17 0;
#X connect 278 5 18 0;
#X connect 278 6 19 0;
#X connect 278 7 20 0;
#X connect 281 0 280 0;
#X connect 282 0 791 0;
#X connect 284 0 289 0;
#X connect 285 0 403 0;
#X connect 286 0 289 1;
#X connect 287 0 289 2;
#X connect 288 0 289 3;
#X connect 289 0 781 0;
#X connect 290 0 283 0;
#X connect 291 0 292 0;
#X connect 292 0 299 0;
#X connect 293 0 294 0;
#X connect 294 0 300 0;
#X connect 295 0 296 0;
#X connect 296 0 302 0;
#X connect 297 0 298 0;
#X connect 298 0 301 0;
#X connect 299 0 332 0;
#X connect 300 0 333 0;
#X connect 301 0 335 0;
#X connect 302 0 334 0;
#X connect 303 0 291 0;
#X connect 303 0 293 0;
#X connect 303 0 295 0;
#X connect 303 0 297 0;
#X connect 303 0 797 0;
#X connect 303 0 802 0;
#X connect 303 0 806 0;
#X connect 304 0 303 0;
#X connect 306 0 304 0;
#X connect 307 0 192 0;
#X connect 312 0 198 0;
#X connect 313 0 210 0;
#X connect 314 0 223 0;
#X connect 315 0 233 0;
#X connect 320 0 203 1;
#X connect 320 0 239 0;
#X connect 320 0 240 0;
#X connect 321 0 213 1;
#X connect 321 0 262 0;
#X connect 321 0 275 0;
#X connect 322 0 226 1;
#X connect 322 0 268 0;
#X connect 322 0 276 0;
#X connect 323 0 236 1;
#X connect 323 0 274 0;
#X connect 323 0 277 0;
#X connect 328 0 239 1;
#X connect 328 0 240 1;
#X connect 329 0 262 1;
#X connect 329 0 275 1;
#X connect 330 0 268 1;
#X connect 330 0 276 1;
#X connect 331 0 274 1;
#X connect 331 0 277 1;
#X connect 336 0 696 0;
#X connect 337 0 280 0;
#X connect 338 0 342 0;
#X connect 339 0 343 0;
#X connect 344 0 345 0;
#X connect 345 0 346 0;
#X connect 346 0 252 0;
#X connect 347 0 201 0;
#X connect 348 0 251 0;
#X connect 349 0 347 0;
#X connect 351 0 352 0;
#X connect 353 0 0 0;
#X connect 354 0 359 0;
#X connect 355 0 360 0;
#X connect 358 0 361 0;
#X connect 362 0 250 0;
#X connect 364 0 365 0;
#X connect 365 0 257 0;
#X connect 366 0 364 0;
#X connect 367 0 216 0;
#X connect 368 0 367 0;
#X connect 369 0 376 0;
#X connect 370 0 377 0;
#X connect 373 0 378 0;
#X connect 374 0 217 0;
#X connect 375 0 374 0;
#X connect 379 0 244 0;
#X connect 380 0 245 0;
#X connect 381 0 249 0;
#X connect 382 0 246 0;
#X connect 383 0 384 0;
#X connect 384 0 263 0;
#X connect 385 0 383 0;
#X connect 386 0 392 0;
#X connect 387 0 393 0;
#X connect 390 0 394 0;
#X connect 391 0 218 0;
#X connect 395 0 391 0;
#X connect 398 0 248 0;
#X connect 399 0 247 0;
#X connect 400 0 401 0;
#X connect 401 0 269 0;
#X connect 402 0 400 0;
#X connect 403 0 284 1;
#X connect 403 0 284 2;
#X connect 403 0 284 3;
#X connect 404 0 403 1;
#X connect 405 0 406 0;
#X connect 406 0 407 0;
#X connect 406 0 414 0;
#X connect 407 0 408 0;
#X connect 408 0 409 0;
#X connect 409 0 410 0;
#X connect 410 0 415 0;
#X connect 411 0 412 0;
#X connect 412 0 413 0;
#X connect 413 0 415 1;
#X connect 414 0 411 0;
#X connect 415 0 419 0;
#X connect 416 0 417 0;
#X connect 417 0 418 0;
#X connect 418 0 413 1;
#X connect 419 0 576 0;
#X connect 420 0 410 1;
#X connect 421 0 437 0;
#X connect 422 0 423 0;
#X connect 423 0 424 0;
#X connect 424 0 581 0;
#X connect 425 0 426 0;
#X connect 426 0 424 1;
#X connect 427 0 428 0;
#X connect 428 0 429 0;
#X connect 429 0 434 0;
#X connect 430 0 427 0;
#X connect 431 0 432 0;
#X connect 432 0 429 1;
#X connect 433 0 431 0;
#X connect 434 0 425 0;
#X connect 435 0 436 0;
#X connect 436 0 434 0;
#X connect 437 0 422 0;
#X connect 438 0 439 0;
#X connect 439 0 440 0;
#X connect 440 0 441 0;
#X connect 441 0 478 0;
#X connect 442 0 440 1;
#X connect 443 0 444 0;
#X connect 444 0 445 0;
#X connect 445 0 478 0;
#X connect 446 0 444 1;
#X connect 447 0 443 0;
#X connect 448 0 449 0;
#X connect 449 0 450 0;
#X connect 450 0 478 0;
#X connect 451 0 449 1;
#X connect 452 0 453 0;
#X connect 453 0 454 0;
#X connect 454 0 478 0;
#X connect 455 0 453 1;
#X connect 456 0 448 0;
#X connect 457 0 452 0;
#X connect 458 0 459 0;
#X connect 459 0 460 0;
#X connect 460 0 478 0;
#X connect 461 0 459 1;
#X connect 462 0 463 0;
#X connect 463 0 464 0;
#X connect 464 0 478 0;
#X connect 465 0 463 1;
#X connect 466 0 467 0;
#X connect 467 0 468 0;
#X connect 468 0 478 0;
#X connect 469 0 467 1;
#X connect 470 0 471 0;
#X connect 471 0 472 0;
#X connect 472 0 478 0;
#X connect 473 0 471 1;
#X connect 474 0 458 0;
#X connect 475 0 462 0;
#X connect 476 0 466 0;
#X connect 477 0 470 0;
#X connect 479 0 480 0;
#X connect 480 0 481 0;
#X connect 481 0 482 0;
#X connect 482 0 560 0;
#X connect 483 0 481 1;
#X connect 484 0 485 0;
#X connect 485 0 486 0;
#X connect 486 0 560 0;
#X connect 487 0 485 1;
#X connect 488 0 484 0;
#X connect 489 0 490 0;
#X connect 490 0 491 0;
#X connect 491 0 560 0;
#X connect 492 0 490 1;
#X connect 493 0 494 0;
#X connect 494 0 495 0;
#X connect 495 0 560 0;
#X connect 496 0 494 1;
#X connect 497 0 489 0;
#X connect 498 0 493 0;
#X connect 499 0 500 0;
#X connect 500 0 501 0;
#X connect 501 0 560 0;
#X connect 502 0 500 1;
#X connect 503 0 504 0;
#X connect 504 0 505 0;
#X connect 505 0 560 0;
#X connect 506 0 504 1;
#X connect 507 0 508 0;
#X connect 508 0 509 0;
#X connect 509 0 560 0;
#X connect 510 0 508 1;
#X connect 511 0 512 0;
#X connect 512 0 513 0;
#X connect 513 0 560 0;
#X connect 514 0 512 1;
#X connect 515 0 499 0;
#X connect 516 0 503 0;
#X connect 517 0 507 0;
#X connect 518 0 511 0;
#X connect 519 0 520 0;
#X connect 520 0 521 0;
#X connect 521 0 522 0;
#X connect 522 0 559 0;
#X connect 523 0 521 1;
#X connect 524 0 525 0;
#X connect 525 0 526 0;
#X connect 526 0 559 0;
#X connect 527 0 525 1;
#X connect 528 0 524 0;
#X connect 529 0 530 0;
#X connect 530 0 531 0;
#X connect 531 0 559 0;
#X connect 532 0 530 1;
#X connect 533 0 534 0;
#X connect 534 0 535 0;
#X connect 535 0 559 0;
#X connect 536 0 534 1;
#X connect 537 0 529 0;
#X connect 538 0 533 0;
#X connect 539 0 540 0;
#X connect 540 0 541 0;
#X connect 541 0 559 0;
#X connect 542 0 540 1;
#X connect 543 0 544 0;
#X connect 544 0 545 0;
#X connect 545 0 559 0;
#X connect 546 0 544 1;
#X connect 547 0 548 0;
#X connect 548 0 549 0;
#X connect 549 0 559 0;
#X connect 550 0 548 1;
#X connect 551 0 552 0;
#X connect 552 0 553 0;
#X connect 553 0 559 0;
#X connect 554 0 552 1;
#X connect 555 0 539 0;
#X connect 556 0 543 0;
#X connect 557 0 547 0;
#X connect 558 0 551 0;
#X connect 561 0 567 0;
#X connect 562 0 563 0;
#X connect 563 0 564 0;
#X connect 564 0 565 0;
#X connect 565 0 566 0;
#X connect 566 0 568 0;
#X connect 567 0 562 0;
#X connect 568 0 569 0;
#X connect 569 0 750 0;
#X connect 570 0 569 1;
#X connect 571 0 570 0;
#X connect 572 0 561 0;
#X connect 573 0 574 0;
#X connect 575 0 405 0;
#X connect 576 0 751 0;
#X connect 577 0 576 1;
#X connect 578 0 577 0;
#X connect 579 0 580 0;
#X connect 581 0 752 0;
#X connect 582 0 581 1;
#X connect 583 0 582 0;
#X connect 584 0 585 0;
#X connect 586 0 421 0;
#X connect 587 0 588 0;
#X connect 588 0 589 0;
#X connect 590 0 338 0;
#X connect 591 0 354 0;
#X connect 592 0 369 0;
#X connect 593 0 386 0;
#X connect 594 0 595 0;
#X connect 595 0 596 0;
#X connect 597 0 351 0;
#X connect 597 0 700 0;
#X connect 598 0 358 0;
#X connect 599 0 373 0;
#X connect 600 0 390 0;
#X connect 601 0 573 0;
#X connect 602 0 584 0;
#X connect 603 0 579 0;
#X connect 604 0 605 0;
#X connect 605 0 606 0;
#X connect 607 0 339 0;
#X connect 608 0 355 0;
#X connect 609 0 370 0;
#X connect 610 0 387 0;
#X connect 611 0 614 0;
#X connect 612 0 611 0;
#X connect 613 0 612 0;
#X connect 614 0 615 0;
#X connect 615 0 616 0;
#X connect 616 0 618 0;
#X connect 617 0 615 1;
#X connect 619 0 617 0;
#X connect 620 0 621 0;
#X connect 620 0 624 0;
#X connect 620 0 626 0;
#X connect 620 0 637 0;
#X connect 620 0 635 0;
#X connect 620 0 633 0;
#X connect 620 0 630 0;
#X connect 620 0 628 0;
#X connect 621 0 622 0;
#X connect 622 0 623 0;
#X connect 623 0 442 0;
#X connect 624 0 625 0;
#X connect 625 0 639 0;
#X connect 626 0 627 0;
#X connect 627 0 640 0;
#X connect 628 0 629 0;
#X connect 629 0 641 0;
#X connect 630 0 631 0;
#X connect 631 0 632 0;
#X connect 632 0 461 0;
#X connect 633 0 634 0;
#X connect 634 0 642 0;
#X connect 635 0 636 0;
#X connect 636 0 643 0;
#X connect 637 0 638 0;
#X connect 638 0 644 0;
#X connect 639 0 446 0;
#X connect 640 0 451 0;
#X connect 641 0 455 0;
#X connect 642 0 465 0;
#X connect 643 0 469 0;
#X connect 644 0 473 0;
#X connect 645 0 646 0;
#X connect 645 0 649 0;
#X connect 645 0 651 0;
#X connect 645 0 662 0;
#X connect 645 0 660 0;
#X connect 645 0 658 0;
#X connect 645 0 655 0;
#X connect 645 0 653 0;
#X connect 646 0 647 0;
#X connect 647 0 648 0;
#X connect 648 0 483 0;
#X connect 649 0 650 0;
#X connect 650 0 664 0;
#X connect 651 0 652 0;
#X connect 652 0 668 0;
#X connect 653 0 654 0;
#X connect 654 0 665 0;
#X connect 655 0 656 0;
#X connect 656 0 657 0;
#X connect 657 0 502 0;
#X connect 658 0 659 0;
#X connect 659 0 666 0;
#X connect 660 0 661 0;
#X connect 661 0 669 0;
#X connect 662 0 663 0;
#X connect 663 0 667 0;
#X connect 664 0 487 0;
#X connect 665 0 496 0;
#X connect 666 0 506 0;
#X connect 667 0 514 0;
#X connect 668 0 492 0;
#X connect 669 0 510 0;
#X connect 670 0 671 0;
#X connect 670 0 673 0;
#X connect 670 0 675 0;
#X connect 670 0 685 0;
#X connect 670 0 683 0;
#X connect 670 0 681 0;
#X connect 670 0 679 0;
#X connect 670 0 677 0;
#X connect 671 0 672 0;
#X connect 672 0 687 0;
#X connect 673 0 674 0;
#X connect 674 0 688 0;
#X connect 675 0 676 0;
#X connect 676 0 689 0;
#X connect 677 0 678 0;
#X connect 678 0 690 0;
#X connect 679 0 680 0;
#X connect 680 0 691 0;
#X connect 681 0 682 0;
#X connect 682 0 692 0;
#X connect 683 0 684 0;
#X connect 684 0 693 0;
#X connect 685 0 686 0;
#X connect 686 0 694 0;
#X connect 687 0 523 0;
#X connect 688 0 527 0;
#X connect 689 0 532 0;
#X connect 690 0 536 0;
#X connect 691 0 542 0;
#X connect 692 0 546 0;
#X connect 693 0 550 0;
#X connect 694 0 554 0;
#X connect 695 0 618 0;
#X connect 696 0 281 0;
#X connect 696 1 337 0;
#X connect 697 0 698 0;
#X connect 698 0 192 0;
#X connect 699 0 697 0;
#X connect 700 0 701 0;
#X connect 702 0 195 0;
#X connect 702 0 195 1;
#X connect 703 0 702 1;
#X connect 712 0 718 0;
#X connect 713 0 714 0;
#X connect 714 0 715 0;
#X connect 716 0 712 0;
#X connect 717 0 420 0;
#X connect 719 0 724 0;
#X connect 720 0 723 0;
#X connect 722 0 719 0;
#X connect 723 0 721 0;
#X connect 726 0 731 0;
#X connect 728 0 726 0;
#X connect 729 0 734 0;
#X connect 732 0 418 1;
#X connect 733 0 418 2;
#X connect 734 0 730 0;
#X connect 735 0 702 0;
#X connect 736 0 702 0;
#X connect 737 0 702 0;
#X connect 738 0 702 0;
#X connect 739 0 702 0;
#X connect 740 0 702 0;
#X connect 741 0 702 0;
#X connect 742 0 291 0;
#X connect 743 0 293 0;
#X connect 744 0 295 0;
#X connect 745 0 297 0;
#X connect 753 0 760 1;
#X connect 754 0 757 0;
#X connect 755 0 757 1;
#X connect 756 0 759 1;
#X connect 757 0 759 0;
#X connect 758 0 761 0;
#X connect 759 0 760 0;
#X connect 760 0 812 0;
#X connect 762 0 768 0;
#X connect 762 0 770 0;
#X connect 762 0 771 0;
#X connect 762 0 780 0;
#X connect 763 0 768 1;
#X connect 764 0 765 0;
#X connect 765 0 770 1;
#X connect 766 0 771 1;
#X connect 767 0 780 1;
#X connect 768 0 286 0;
#X connect 769 0 793 0;
#X connect 769 0 794 0;
#X connect 769 0 792 0;
#X connect 769 0 764 0;
#X connect 770 0 287 0;
#X connect 771 0 288 0;
#X connect 772 0 790 0;
#X connect 773 0 782 0;
#X connect 774 0 787 0;
#X connect 775 0 779 0;
#X connect 775 1 776 0;
#X connect 776 0 777 0;
#X connect 777 0 778 0;
#X connect 778 0 776 1;
#X connect 778 0 779 1;
#X connect 779 0 289 0;
#X connect 780 0 285 0;
#X connect 781 0 784 0;
#X connect 782 0 769 0;
#X connect 783 0 778 1;
#X connect 784 0 818 0;
#X connect 785 0 818 1;
#X connect 786 0 818 2;
#X connect 787 0 788 0;
#X connect 788 0 789 0;
#X connect 789 0 284 0;
#X connect 790 0 774 0;
#X connect 791 0 787 0;
#X connect 792 0 767 0;
#X connect 793 0 763 0;
#X connect 794 0 766 0;
#X connect 795 0 796 0;
#X connect 796 0 404 0;
#X connect 797 0 798 0;
#X connect 798 0 799 0;
#X connect 799 0 801 0;
#X connect 800 0 797 0;
#X connect 802 0 803 0;
#X connect 803 0 811 0;
#X connect 804 0 802 0;
#X connect 806 0 807 0;
#X connect 807 0 810 0;
#X connect 808 0 806 0;
#X connect 810 0 809 0;
#X connect 811 0 805 0;
#X connect 812 0 813 0;
#X connect 813 0 816 0;
#X connect 814 0 812 1;
#X connect 815 0 813 1;
#X connect 816 0 758 0;
#X connect 817 0 816 1;
#X connect 818 0 775 0;
#X connect 819 0 820 0;
#X connect 820 0 785 0;
#X connect 820 0 786 0;
